<?xml version="1.0" encoding="utf-8"?>
<!-- Generator: Adobe Illustrator 15.1.0, SVG Export Plug-In  -->
<!DOCTYPE svg PUBLIC "-//W3C//DTD SVG 1.1//EN" "http://www.w3.org/Graphics/SVG/1.1/DTD/svg11.dtd" [
	<!ENTITY ns_flows "http://ns.adobe.com/Flows/1.0/">
]>
<svg version="1.1"
	 xmlns="http://www.w3.org/2000/svg" xmlns:xlink="http://www.w3.org/1999/xlink" xmlns:a="http://ns.adobe.com/AdobeSVGViewerExtensions/3.0/"
	 x="0px" y="0px" width="116px" height="40px" viewBox="0 0 116 40" overflow="visible" enable-background="new 0 0 116 40"
	 xml:space="preserve">
<defs>
</defs>
<polygon points="100.277,0 95.078,0 102.548,19.93 95.078,39.861 100.277,39.861 107.633,19.93 "/>
<path d="M29.107,34.6c-0.361,0-0.6-0.117-0.837-0.353l-3.406-3.408c-0.238-0.242-0.359-0.539-0.359-0.838V9.863
	c0-0.302,0.121-0.599,0.359-0.836L28.27,5.62c0.238-0.24,0.477-0.361,0.837-0.361h1.022V0h-1.917c-1.138,0-2.151,0.419-2.987,1.256
	L20.32,6.156c-0.833,0.836-1.25,1.853-1.25,2.987v21.576c0,1.133,0.418,2.148,1.25,2.987l4.905,4.899
	c0.836,0.836,1.85,1.256,2.987,1.256h1.917V34.6H29.107z"/>
<path d="M33.928,34.6c0.36,0,0.599-0.117,0.837-0.353l3.406-3.408c0.239-0.242,0.359-0.539,0.359-0.838V9.863
	c0-0.302-0.121-0.599-0.359-0.836L34.765,5.62c-0.238-0.24-0.477-0.361-0.837-0.361h-1.022V0h1.917c1.139,0,2.15,0.419,2.987,1.256
	l4.905,4.899c0.832,0.836,1.25,1.853,1.25,2.987v21.576c0,1.133-0.419,2.148-1.25,2.987l-4.905,4.899
	c-0.836,0.836-1.848,1.256-2.987,1.256h-1.917V34.6H33.928z"/>
<path d="M10.039,34.6c-0.36,0-0.599-0.117-0.836-0.353l-3.406-3.408c-0.239-0.242-0.362-0.539-0.362-0.838V9.863
	c0-0.302,0.123-0.599,0.362-0.836L9.202,5.62c0.238-0.24,0.477-0.361,0.836-0.361h2.332V0H9.143C8.004,0,6.992,0.419,6.156,1.256
	L1.251,6.156C0.419,6.992,0,8.009,0,9.143v21.576c0,1.133,0.419,2.148,1.251,2.987l4.905,4.899c0.836,0.836,1.848,1.256,2.987,1.256
	h3.227V34.6H10.039z"/>
<polygon points="111.33,0 109.042,5.77 113.966,5.77 116.145,0 "/>
<path d="M53.873,39.861h-5.08L58.406,0h4.967L53.873,39.861z"/>
<rect x="65.527" y="35.141" width="4.721" height="4.721"/>
<path d="M87.994,36.273V3.582C87.994,0.53,86.336,0,85.18,0H75.019v4.662h7.897v30.479h-7.897v4.721h10.079
	C86.268,39.861,87.994,39.398,87.994,36.273z"/>
</svg>
