<?xml version="1.0" encoding="utf-8"?>
<!-- Generator: Adobe Illustrator 17.0.2, SVG Export Plug-In . SVG Version: 6.00 Build 0)  -->
<!DOCTYPE svg PUBLIC "-//W3C//DTD SVG 1.1//EN" "http://www.w3.org/Graphics/SVG/1.1/DTD/svg11.dtd">
<svg version="1.1" id="Layer_1" xmlns="http://www.w3.org/2000/svg" xmlns:xlink="http://www.w3.org/1999/xlink" x="0px" y="0px"
	 width="58.072px" height="19.931px" viewBox="29.036 9.965 58.072 19.931" enable-background="new 29.036 9.965 58.072 19.931"
	 xml:space="preserve">
<polygon fill="#FFFFFF" points="79.175,9.965 76.575,9.965 80.31,19.931 76.575,29.896 79.175,29.896 82.853,19.931 "/>
<path fill="#FFFFFF" d="M43.59,27.265c-0.181,0-0.3-0.059-0.418-0.177l-1.703-1.704c-0.119-0.121-0.18-0.27-0.18-0.419V14.897
	c0-0.151,0.061-0.299,0.18-0.418l1.703-1.704c0.119-0.12,0.238-0.181,0.418-0.181h0.511V9.965h-0.958
	c-0.569,0-1.076,0.21-1.493,0.628l-2.452,2.45c-0.417,0.418-0.625,0.926-0.625,1.493v10.788c0,0.566,0.209,1.074,0.625,1.493
	l2.452,2.45c0.418,0.418,0.925,0.628,1.493,0.628h0.958v-2.631H43.59z"/>
<path fill="#FFFFFF" d="M46,27.265c0.18,0,0.299-0.059,0.418-0.177l1.703-1.704c0.119-0.121,0.18-0.27,0.18-0.419V14.897
	c0-0.151-0.06-0.299-0.18-0.418l-1.703-1.704C46.3,12.656,46.18,12.595,46,12.595h-0.511V9.965h0.958c0.57,0,1.075,0.21,1.493,0.628
	l2.452,2.45c0.416,0.418,0.625,0.926,0.625,1.493v10.788c0,0.566-0.209,1.074-0.625,1.493l-2.452,2.45
	c-0.418,0.418-0.924,0.628-1.493,0.628h-0.958v-2.63H46z"/>
<path fill="#FFFFFF" d="M34.056,27.265c-0.18,0-0.299-0.059-0.418-0.177l-1.703-1.704c-0.12-0.121-0.181-0.27-0.181-0.419V14.897
	c0-0.151,0.062-0.299,0.181-0.418l1.702-1.704c0.119-0.12,0.238-0.181,0.418-0.181h1.166V9.965h-1.613
	c-0.569,0-1.076,0.21-1.493,0.628l-2.453,2.45c-0.416,0.418-0.625,0.926-0.625,1.493v10.788c0,0.566,0.209,1.074,0.625,1.493
	l2.453,2.45c0.418,0.418,0.924,0.628,1.493,0.628h1.613v-2.631H34.056z"/>
<polygon fill="#FFFFFF" points="84.701,9.965 83.557,12.851 86.019,12.851 87.109,9.965 "/>
<path fill="#FFFFFF" d="M55.973,29.896h-2.54l4.807-19.931h2.483L55.973,29.896z"/>
<rect x="61.8" y="27.536" fill="#FFFFFF" width="2.361" height="2.361"/>
<g>
	<path fill="#FFFFFF" d="M73.033,28.102V11.757c0-1.526-0.829-1.791-1.407-1.791h-5.081v2.331h3.949v15.239h-3.949v2.361h5.04
		C72.17,29.896,73.033,29.664,73.033,28.102z"/>
</g>
</svg>
